<svg xmlns="http://www.w3.org/2000/svg" width="92" height="148" viewBox="0 0 92 148"><defs><clipPath id="t"><rect width="92" height="148"/></clipPath><path id="s" d="M 0 0 C -2.679 1.204 -4.941 1.005 -7.182 -0.041 C -4.838 -1.735 -1.86 -1.607 0 0 M 19.748 3.598 C 17.938 5.034 15.878 5.56 13.645 4.74 C 14.963 2.58 17.693 2.119 19.748 3.598 M -2.644 7.371 C -5.632 9.864 -9.55 8.955 -11.909 6.249 C -8.833 4.581 -4.808 4.548 -2.644 7.371 M -0.91 9.409 C 0.142 11.027 -0.1 12.883 -1.451 13.952 C -1.645 12.316 -1.48 10.886 -0.91 9.409 M 13.618 10.979 C 18.491 10.389 22.546 13.075 23.462 17.892 C 19.51 16.903 14.038 14.686 13.618 10.979 M 24.686 23.289 C 22.311 24.357 19.928 24.095 17.568 23.05 C 19.511 21.384 22.371 21.725 24.686 23.289 M -2.246 22.964 C -4.099 25.273 -7.107 25.32 -9.304 23.645 C -7.247 21.877 -4.534 21.573 -2.246 22.964 M 7.83 26.134 C 6.279 24.326 5.93 21.733 7.168 19.849 C 9.46 20.455 9.375 23.281 7.83 26.134 M 17.356 28.71 L 16.434 30.821 C 14.508 29.428 13.906 26.447 15.265 24.664 C 16.98 24.889 18.045 27.129 17.356 28.71 M -0.04 24.859 C 2.13 27.083 0.91 29.852 -1.143 31.165 C -2.278 29.074 -2.244 26.12 -0.04 24.859 M 13.623 9.249 C 12.448 8.385 11.404 6.91 10.754 5.559 C 14.869 7.693 19.261 7.138 22.282 3.613 C 20.959 1.777 19.004 0.848 16.738 0.981 C 14.811 1.093 13.212 2.369 11.764 4.039 C 10.829 3.353 9.168 2.225 8.835 1.269 C 6.425 -6.23 9.497 -13.744 15.859 -18.106 C 16.103 -18.273 16.478 -18.872 16.461 -19.16 C 16.44 -19.52 15.488 -19.765 15.094 -19.679 C 10.023 -16.357 6.846 -11.181 6.292 -5.191 C 5.018 -3.412 3.664 -1.929 1.981 -0.819 C -1.954 -4.249 -6.992 -3.438 -10.39 0.371 C -6.141 3.396 -1.278 3.077 3.445 0.489 L -1.082 6.219 C -4.202 2.618 -10.594 2.285 -14.035 5.823 C -12.288 9.94 -7.232 11.57 -3.092 9.868 C -3.605 12.598 -3.193 14.728 -2.063 16.913 C 1.368 14.828 2.681 10.961 0.241 7.556 C 1.525 5.519 2.873 3.773 4.933 1.959 C 4.395 8.904 2.631 15.953 -1.131 21.385 C -4.738 19.618 -9.351 20.244 -11.519 23.519 C -10.05 26.306 -6.367 27.19 -3.363 26.059 C -3.901 29.181 -3.685 31.706 -1.084 33.699 C 1.3 31.803 3.248 29.228 2.84 26.667 C 2.609 25.221 1.525 23.848 -0.074 23.069 C 2.572 19.058 4.445 14.839 5.532 9.725 L 7.814 15.408 L 5.268 19.866 C 3.518 22.932 5.538 26.57 7.659 29.304 C 9.074 27.816 10.087 25.764 10.604 23.701 C 11.269 21.044 9.504 19.884 8.466 17.35 C 10.689 19.325 11.921 21.383 14.216 23.022 C 12.844 24.558 12.497 26.571 13.027 28.724 C 13.464 30.497 14.88 32.156 16.924 33.281 C 18.648 31.006 19.841 28.449 18.912 25.524 C 22.002 25.929 25.086 25.608 27.979 23.649 C 24.187 20.04 19.578 18.761 15.832 22.105 C 9.499 17.4 6.297 9.792 6.907 2.013 C 8.498 5.194 9.963 7.862 11.92 10.451 C 11.865 12.235 12.49 13.864 13.745 15.091 C 17.155 17.823 21.113 19.565 25.47 19.932 C 25.464 13.445 20.364 8.487 13.623 9.249"/></defs><rect width="92" height="148" fill="#f5e6cc"/><g clip-path="url(#t)" fill="#426337" fill-opacity="0.4"><use href="#s" transform="translate(-46 -111) scale(0.62 -0.62) translate(-6.9719999999999995 -6.966999999999999)"/><use href="#s" transform="translate(0 -37) scale(0.62 -0.62) translate(-6.9719999999999995 -6.966999999999999)"/><use href="#s" transform="translate(-46 37) scale(0.62 -0.62) translate(-6.9719999999999995 -6.966999999999999)"/><use href="#s" transform="translate(0 111) scale(0.62 -0.62) translate(-6.9719999999999995 -6.966999999999999)"/><use href="#s" transform="translate(-46 185) scale(0.62 -0.62) translate(-6.9719999999999995 -6.966999999999999)"/><use href="#s" transform="translate(0 259) scale(0.62 -0.62) translate(-6.9719999999999995 -6.966999999999999)"/><use href="#s" transform="translate(46 -111) scale(0.62 -0.62) translate(-6.9719999999999995 -6.966999999999999)"/><use href="#s" transform="translate(92 -37) scale(0.62 -0.62) translate(-6.9719999999999995 -6.966999999999999)"/><use href="#s" transform="translate(46 37) scale(0.62 -0.62) translate(-6.9719999999999995 -6.966999999999999)"/><use href="#s" transform="translate(92 111) scale(0.62 -0.62) translate(-6.9719999999999995 -6.966999999999999)"/><use href="#s" transform="translate(46 185) scale(0.62 -0.62) translate(-6.9719999999999995 -6.966999999999999)"/><use href="#s" transform="translate(92 259) scale(0.62 -0.62) translate(-6.9719999999999995 -6.966999999999999)"/><use href="#s" transform="translate(138 -111) scale(0.62 -0.62) translate(-6.9719999999999995 -6.966999999999999)"/><use href="#s" transform="translate(184 -37) scale(0.62 -0.62) translate(-6.9719999999999995 -6.966999999999999)"/><use href="#s" transform="translate(138 37) scale(0.62 -0.62) translate(-6.9719999999999995 -6.966999999999999)"/><use href="#s" transform="translate(184 111) scale(0.62 -0.62) translate(-6.9719999999999995 -6.966999999999999)"/><use href="#s" transform="translate(138 185) scale(0.62 -0.62) translate(-6.9719999999999995 -6.966999999999999)"/><use href="#s" transform="translate(184 259) scale(0.62 -0.62) translate(-6.9719999999999995 -6.966999999999999)"/></g></svg>