<svg xmlns="http://www.w3.org/2000/svg" width="140" height="140" viewBox="0 0 140 140">
  <defs><clipPath id="t"><rect width="140" height="140"/></clipPath></defs>
  <rect width="140" height="140" fill="#f5e6cc"/>
  <g clip-path="url(#t)">
    <g fill="#e5d8b8"><path transform="translate(-114 -110) rotate(-22) scale(1)" d="M0,-15 C5.5,-7.5 5.5,7.5 0,15 C-5.5,7.5 -5.5,-7.5 0,-15 Z"/><path transform="translate(-41 -122) rotate(46) scale(0.82)" d="M0,-15 C5.5,-7.5 5.5,7.5 0,15 C-5.5,7.5 -5.5,-7.5 0,-15 Z"/><path transform="translate(-78 -72) rotate(158) scale(1.12)" d="M0,-15 C5.5,-7.5 5.5,7.5 0,15 C-5.5,7.5 -5.5,-7.5 0,-15 Z"/><path transform="translate(-20 -56) rotate(-58) scale(0.9)" d="M0,-15 C5.5,-7.5 5.5,7.5 0,15 C-5.5,7.5 -5.5,-7.5 0,-15 Z"/><path transform="translate(-120 -36) rotate(72) scale(0.95)" d="M0,-15 C5.5,-7.5 5.5,7.5 0,15 C-5.5,7.5 -5.5,-7.5 0,-15 Z"/><path transform="translate(-56 -14) rotate(205) scale(0.8)" d="M0,-15 C5.5,-7.5 5.5,7.5 0,15 C-5.5,7.5 -5.5,-7.5 0,-15 Z"/><path transform="translate(-114 30) rotate(-22) scale(1)" d="M0,-15 C5.5,-7.5 5.5,7.5 0,15 C-5.5,7.5 -5.5,-7.5 0,-15 Z"/><path transform="translate(-41 18) rotate(46) scale(0.82)" d="M0,-15 C5.5,-7.5 5.5,7.5 0,15 C-5.5,7.5 -5.5,-7.5 0,-15 Z"/><path transform="translate(-78 68) rotate(158) scale(1.12)" d="M0,-15 C5.5,-7.5 5.5,7.5 0,15 C-5.5,7.5 -5.5,-7.5 0,-15 Z"/><path transform="translate(-20 84) rotate(-58) scale(0.9)" d="M0,-15 C5.5,-7.5 5.5,7.5 0,15 C-5.5,7.5 -5.5,-7.5 0,-15 Z"/><path transform="translate(-120 104) rotate(72) scale(0.95)" d="M0,-15 C5.5,-7.5 5.5,7.5 0,15 C-5.5,7.5 -5.5,-7.5 0,-15 Z"/><path transform="translate(-56 126) rotate(205) scale(0.8)" d="M0,-15 C5.5,-7.5 5.5,7.5 0,15 C-5.5,7.5 -5.5,-7.5 0,-15 Z"/><path transform="translate(-114 170) rotate(-22) scale(1)" d="M0,-15 C5.5,-7.5 5.5,7.5 0,15 C-5.5,7.5 -5.5,-7.5 0,-15 Z"/><path transform="translate(-41 158) rotate(46) scale(0.82)" d="M0,-15 C5.5,-7.5 5.5,7.5 0,15 C-5.5,7.5 -5.5,-7.5 0,-15 Z"/><path transform="translate(-78 208) rotate(158) scale(1.12)" d="M0,-15 C5.5,-7.5 5.5,7.5 0,15 C-5.5,7.5 -5.5,-7.5 0,-15 Z"/><path transform="translate(-20 224) rotate(-58) scale(0.9)" d="M0,-15 C5.5,-7.5 5.5,7.5 0,15 C-5.5,7.5 -5.5,-7.5 0,-15 Z"/><path transform="translate(-120 244) rotate(72) scale(0.95)" d="M0,-15 C5.5,-7.5 5.5,7.5 0,15 C-5.5,7.5 -5.5,-7.5 0,-15 Z"/><path transform="translate(-56 266) rotate(205) scale(0.8)" d="M0,-15 C5.5,-7.5 5.5,7.5 0,15 C-5.5,7.5 -5.5,-7.5 0,-15 Z"/><path transform="translate(26 -110) rotate(-22) scale(1)" d="M0,-15 C5.5,-7.5 5.5,7.5 0,15 C-5.5,7.5 -5.5,-7.5 0,-15 Z"/><path transform="translate(99 -122) rotate(46) scale(0.82)" d="M0,-15 C5.5,-7.5 5.5,7.5 0,15 C-5.5,7.5 -5.5,-7.5 0,-15 Z"/><path transform="translate(62 -72) rotate(158) scale(1.12)" d="M0,-15 C5.5,-7.5 5.5,7.5 0,15 C-5.5,7.5 -5.5,-7.5 0,-15 Z"/><path transform="translate(120 -56) rotate(-58) scale(0.9)" d="M0,-15 C5.5,-7.5 5.5,7.5 0,15 C-5.5,7.5 -5.5,-7.5 0,-15 Z"/><path transform="translate(20 -36) rotate(72) scale(0.95)" d="M0,-15 C5.5,-7.5 5.5,7.5 0,15 C-5.5,7.5 -5.5,-7.5 0,-15 Z"/><path transform="translate(84 -14) rotate(205) scale(0.8)" d="M0,-15 C5.5,-7.5 5.5,7.5 0,15 C-5.5,7.5 -5.5,-7.5 0,-15 Z"/><path transform="translate(26 30) rotate(-22) scale(1)" d="M0,-15 C5.5,-7.5 5.5,7.5 0,15 C-5.5,7.5 -5.5,-7.5 0,-15 Z"/><path transform="translate(99 18) rotate(46) scale(0.82)" d="M0,-15 C5.5,-7.5 5.5,7.5 0,15 C-5.5,7.5 -5.5,-7.5 0,-15 Z"/><path transform="translate(62 68) rotate(158) scale(1.12)" d="M0,-15 C5.5,-7.5 5.5,7.5 0,15 C-5.5,7.5 -5.5,-7.5 0,-15 Z"/><path transform="translate(120 84) rotate(-58) scale(0.9)" d="M0,-15 C5.5,-7.5 5.5,7.5 0,15 C-5.5,7.5 -5.5,-7.5 0,-15 Z"/><path transform="translate(20 104) rotate(72) scale(0.95)" d="M0,-15 C5.5,-7.5 5.5,7.5 0,15 C-5.5,7.5 -5.5,-7.5 0,-15 Z"/><path transform="translate(84 126) rotate(205) scale(0.8)" d="M0,-15 C5.5,-7.5 5.5,7.5 0,15 C-5.5,7.5 -5.5,-7.5 0,-15 Z"/><path transform="translate(26 170) rotate(-22) scale(1)" d="M0,-15 C5.5,-7.5 5.5,7.5 0,15 C-5.5,7.5 -5.5,-7.5 0,-15 Z"/><path transform="translate(99 158) rotate(46) scale(0.82)" d="M0,-15 C5.5,-7.5 5.5,7.5 0,15 C-5.5,7.5 -5.5,-7.5 0,-15 Z"/><path transform="translate(62 208) rotate(158) scale(1.12)" d="M0,-15 C5.5,-7.5 5.5,7.5 0,15 C-5.5,7.5 -5.5,-7.5 0,-15 Z"/><path transform="translate(120 224) rotate(-58) scale(0.9)" d="M0,-15 C5.5,-7.5 5.5,7.5 0,15 C-5.5,7.5 -5.5,-7.5 0,-15 Z"/><path transform="translate(20 244) rotate(72) scale(0.95)" d="M0,-15 C5.5,-7.5 5.5,7.5 0,15 C-5.5,7.5 -5.5,-7.5 0,-15 Z"/><path transform="translate(84 266) rotate(205) scale(0.8)" d="M0,-15 C5.5,-7.5 5.5,7.5 0,15 C-5.5,7.5 -5.5,-7.5 0,-15 Z"/><path transform="translate(166 -110) rotate(-22) scale(1)" d="M0,-15 C5.5,-7.5 5.5,7.5 0,15 C-5.5,7.5 -5.5,-7.5 0,-15 Z"/><path transform="translate(239 -122) rotate(46) scale(0.82)" d="M0,-15 C5.5,-7.5 5.5,7.5 0,15 C-5.5,7.5 -5.5,-7.5 0,-15 Z"/><path transform="translate(202 -72) rotate(158) scale(1.12)" d="M0,-15 C5.5,-7.5 5.5,7.5 0,15 C-5.5,7.5 -5.5,-7.5 0,-15 Z"/><path transform="translate(260 -56) rotate(-58) scale(0.9)" d="M0,-15 C5.5,-7.5 5.5,7.5 0,15 C-5.5,7.5 -5.5,-7.5 0,-15 Z"/><path transform="translate(160 -36) rotate(72) scale(0.95)" d="M0,-15 C5.5,-7.5 5.5,7.5 0,15 C-5.5,7.5 -5.5,-7.5 0,-15 Z"/><path transform="translate(224 -14) rotate(205) scale(0.8)" d="M0,-15 C5.5,-7.5 5.5,7.5 0,15 C-5.5,7.5 -5.5,-7.5 0,-15 Z"/><path transform="translate(166 30) rotate(-22) scale(1)" d="M0,-15 C5.5,-7.5 5.5,7.5 0,15 C-5.5,7.5 -5.5,-7.5 0,-15 Z"/><path transform="translate(239 18) rotate(46) scale(0.82)" d="M0,-15 C5.5,-7.5 5.5,7.5 0,15 C-5.5,7.5 -5.5,-7.5 0,-15 Z"/><path transform="translate(202 68) rotate(158) scale(1.12)" d="M0,-15 C5.5,-7.5 5.5,7.5 0,15 C-5.5,7.5 -5.5,-7.5 0,-15 Z"/><path transform="translate(260 84) rotate(-58) scale(0.9)" d="M0,-15 C5.5,-7.5 5.5,7.5 0,15 C-5.5,7.5 -5.5,-7.5 0,-15 Z"/><path transform="translate(160 104) rotate(72) scale(0.95)" d="M0,-15 C5.5,-7.5 5.5,7.5 0,15 C-5.5,7.5 -5.5,-7.5 0,-15 Z"/><path transform="translate(224 126) rotate(205) scale(0.8)" d="M0,-15 C5.5,-7.5 5.5,7.5 0,15 C-5.5,7.5 -5.5,-7.5 0,-15 Z"/><path transform="translate(166 170) rotate(-22) scale(1)" d="M0,-15 C5.5,-7.5 5.5,7.5 0,15 C-5.5,7.5 -5.5,-7.5 0,-15 Z"/><path transform="translate(239 158) rotate(46) scale(0.82)" d="M0,-15 C5.5,-7.5 5.5,7.5 0,15 C-5.5,7.5 -5.5,-7.5 0,-15 Z"/><path transform="translate(202 208) rotate(158) scale(1.12)" d="M0,-15 C5.5,-7.5 5.5,7.5 0,15 C-5.5,7.5 -5.5,-7.5 0,-15 Z"/><path transform="translate(260 224) rotate(-58) scale(0.9)" d="M0,-15 C5.5,-7.5 5.5,7.5 0,15 C-5.5,7.5 -5.5,-7.5 0,-15 Z"/><path transform="translate(160 244) rotate(72) scale(0.95)" d="M0,-15 C5.5,-7.5 5.5,7.5 0,15 C-5.5,7.5 -5.5,-7.5 0,-15 Z"/><path transform="translate(224 266) rotate(205) scale(0.8)" d="M0,-15 C5.5,-7.5 5.5,7.5 0,15 C-5.5,7.5 -5.5,-7.5 0,-15 Z"/></g>
    <g fill="none" stroke="#f5e6cc" stroke-width="1" stroke-linecap="round"><path transform="translate(-114 -110) rotate(-22) scale(1)" d="M0,-12 L0,12"/><path transform="translate(-41 -122) rotate(46) scale(0.82)" d="M0,-12 L0,12"/><path transform="translate(-78 -72) rotate(158) scale(1.12)" d="M0,-12 L0,12"/><path transform="translate(-20 -56) rotate(-58) scale(0.9)" d="M0,-12 L0,12"/><path transform="translate(-120 -36) rotate(72) scale(0.95)" d="M0,-12 L0,12"/><path transform="translate(-56 -14) rotate(205) scale(0.8)" d="M0,-12 L0,12"/><path transform="translate(-114 30) rotate(-22) scale(1)" d="M0,-12 L0,12"/><path transform="translate(-41 18) rotate(46) scale(0.82)" d="M0,-12 L0,12"/><path transform="translate(-78 68) rotate(158) scale(1.12)" d="M0,-12 L0,12"/><path transform="translate(-20 84) rotate(-58) scale(0.9)" d="M0,-12 L0,12"/><path transform="translate(-120 104) rotate(72) scale(0.95)" d="M0,-12 L0,12"/><path transform="translate(-56 126) rotate(205) scale(0.8)" d="M0,-12 L0,12"/><path transform="translate(-114 170) rotate(-22) scale(1)" d="M0,-12 L0,12"/><path transform="translate(-41 158) rotate(46) scale(0.82)" d="M0,-12 L0,12"/><path transform="translate(-78 208) rotate(158) scale(1.12)" d="M0,-12 L0,12"/><path transform="translate(-20 224) rotate(-58) scale(0.9)" d="M0,-12 L0,12"/><path transform="translate(-120 244) rotate(72) scale(0.95)" d="M0,-12 L0,12"/><path transform="translate(-56 266) rotate(205) scale(0.8)" d="M0,-12 L0,12"/><path transform="translate(26 -110) rotate(-22) scale(1)" d="M0,-12 L0,12"/><path transform="translate(99 -122) rotate(46) scale(0.82)" d="M0,-12 L0,12"/><path transform="translate(62 -72) rotate(158) scale(1.12)" d="M0,-12 L0,12"/><path transform="translate(120 -56) rotate(-58) scale(0.9)" d="M0,-12 L0,12"/><path transform="translate(20 -36) rotate(72) scale(0.95)" d="M0,-12 L0,12"/><path transform="translate(84 -14) rotate(205) scale(0.8)" d="M0,-12 L0,12"/><path transform="translate(26 30) rotate(-22) scale(1)" d="M0,-12 L0,12"/><path transform="translate(99 18) rotate(46) scale(0.82)" d="M0,-12 L0,12"/><path transform="translate(62 68) rotate(158) scale(1.12)" d="M0,-12 L0,12"/><path transform="translate(120 84) rotate(-58) scale(0.9)" d="M0,-12 L0,12"/><path transform="translate(20 104) rotate(72) scale(0.95)" d="M0,-12 L0,12"/><path transform="translate(84 126) rotate(205) scale(0.8)" d="M0,-12 L0,12"/><path transform="translate(26 170) rotate(-22) scale(1)" d="M0,-12 L0,12"/><path transform="translate(99 158) rotate(46) scale(0.82)" d="M0,-12 L0,12"/><path transform="translate(62 208) rotate(158) scale(1.12)" d="M0,-12 L0,12"/><path transform="translate(120 224) rotate(-58) scale(0.9)" d="M0,-12 L0,12"/><path transform="translate(20 244) rotate(72) scale(0.95)" d="M0,-12 L0,12"/><path transform="translate(84 266) rotate(205) scale(0.8)" d="M0,-12 L0,12"/><path transform="translate(166 -110) rotate(-22) scale(1)" d="M0,-12 L0,12"/><path transform="translate(239 -122) rotate(46) scale(0.82)" d="M0,-12 L0,12"/><path transform="translate(202 -72) rotate(158) scale(1.12)" d="M0,-12 L0,12"/><path transform="translate(260 -56) rotate(-58) scale(0.9)" d="M0,-12 L0,12"/><path transform="translate(160 -36) rotate(72) scale(0.95)" d="M0,-12 L0,12"/><path transform="translate(224 -14) rotate(205) scale(0.8)" d="M0,-12 L0,12"/><path transform="translate(166 30) rotate(-22) scale(1)" d="M0,-12 L0,12"/><path transform="translate(239 18) rotate(46) scale(0.82)" d="M0,-12 L0,12"/><path transform="translate(202 68) rotate(158) scale(1.12)" d="M0,-12 L0,12"/><path transform="translate(260 84) rotate(-58) scale(0.9)" d="M0,-12 L0,12"/><path transform="translate(160 104) rotate(72) scale(0.95)" d="M0,-12 L0,12"/><path transform="translate(224 126) rotate(205) scale(0.8)" d="M0,-12 L0,12"/><path transform="translate(166 170) rotate(-22) scale(1)" d="M0,-12 L0,12"/><path transform="translate(239 158) rotate(46) scale(0.82)" d="M0,-12 L0,12"/><path transform="translate(202 208) rotate(158) scale(1.12)" d="M0,-12 L0,12"/><path transform="translate(260 224) rotate(-58) scale(0.9)" d="M0,-12 L0,12"/><path transform="translate(160 244) rotate(72) scale(0.95)" d="M0,-12 L0,12"/><path transform="translate(224 266) rotate(205) scale(0.8)" d="M0,-12 L0,12"/></g>
  </g>
</svg>
