<svg xmlns="http://www.w3.org/2000/svg" viewBox="623.2121000000001 233.9448 137.15519999999992 127.38729999999995" role="img" fill="currentColor"><g transform="matrix(1 0 0 -1 0 595.276)"><g transform="translate(676.3861 277.9646)"><path d="M 0 0 C 3.462 1.869 8.193 5.284 6.277 9.053 L 4.111 13.315 C 3.672 14.177 3.159 14.804 3.529 15.894 C 3.746 16.532 4.404 17.24 5.23 17.544 C 6.214 17.907 7.21 17.694 7.82 16.822 C 11.916 10.964 14.06 4.008 7.857 -0.877 C -0.379 -7.363 -12.474 -9.411 -22.897 -9.554 C -28.507 -9.631 -33.792 -9.229 -39.202 -7.825 C -41.717 -7.173 -44.048 -6.395 -46.177 -4.929 C -49.996 -2.297 -51.174 2.598 -48.657 6.624 C -47.122 9.077 -44.893 11.081 -42.27 12.523 C -34.974 16.534 -26.7 18.38 -18.4 18.035 C -17.84 18.012 -17.232 17.497 -17.185 17.129 C -17.115 16.588 -17.677 16.08 -18.278 15.963 L -27.945 14.085 C -31.792 13.338 -35.401 12.031 -38.856 10.241 C -42.654 8.273 -46.393 4.131 -44.045 0.419 C -43.501 -0.441 -42.483 -0.981 -41.547 -1.432 C -36.17 -4.02 -30.043 -4.835 -24.062 -4.697 C -16.002 -4.511 -7.082 -3.823 0 0" fill="currentColor"/></g><g transform="translate(748.7147 251.4679)"><path d="M 0 0 C -16.029 -0.574 -35.629 -0.912 -56.792 -0.912 C -77.954 -0.912 -97.554 -0.574 -113.583 0 C -97.554 0.574 -77.954 0.912 -56.792 0.912 C -35.629 0.912 -16.029 0.574 0 0" fill="currentColor"/></g><g transform="translate(643.3511 241.141)"><path d="M 0 0 C 0 2.097 0.803 2.978 2.688 2.978 C 3.212 2.978 3.926 2.911 4.874 2.721 L 4.662 1.561 C 3.769 1.751 3.301 1.795 2.955 1.795 C 1.896 1.795 1.572 1.383 1.572 0.011 C 1.572 -1.372 1.896 -1.784 2.922 -1.784 C 3.245 -1.784 3.68 -1.74 4.662 -1.561 L 4.874 -2.721 C 3.926 -2.911 3.212 -2.978 2.688 -2.978 C 0.803 -2.978 0 -2.097 0 0" fill="currentColor"/></g><g transform="translate(650.9679 239.3008)"><path d="M 0 0 C 0.413 0 0.926 0.234 1.372 0.535 L 1.372 1.673 C 1.015 1.706 0.714 1.717 0.457 1.717 C -0.468 1.717 -0.781 1.506 -0.781 0.903 C -0.781 0.268 -0.457 0 0 0 M 1.561 -0.346 C 0.892 -0.781 0.123 -1.138 -0.58 -1.138 C -1.506 -1.138 -2.32 -0.524 -2.32 0.747 C -2.32 1.974 -1.561 2.487 0.29 2.487 C 0.636 2.487 0.981 2.476 1.372 2.442 L 1.372 2.799 C 1.372 3.446 0.881 3.625 0.201 3.625 C -0.357 3.625 -1.048 3.513 -1.628 3.39 L -1.807 4.528 C -1.205 4.651 -0.234 4.818 0.569 4.818 C 1.784 4.818 2.944 4.416 2.944 2.866 L 2.944 -0.948 L 1.65 -0.948 Z" fill="currentColor"/></g><g transform="translate(656.9514 262.355)"><path d="M 0 0 C -0.098 -1.851 -2.039 -3.069 -3.759 -2.56 C -4.902 -2.223 -5.545 -1.252 -5.659 -0.207 C -5.778 0.876 -5.214 1.866 -4.24 2.53 C -3.393 3.107 -2.268 3.008 -1.387 2.419 C -0.687 1.951 0.058 1.091 0 0" fill="currentColor"/></g><g transform="translate(655.3839 242.7915)"><path d="M 0 0 L -1.004 0 L -1.004 1.138 L 0 1.138 L 0 2.063 C 0 3.134 0.346 4.115 2.052 4.115 C 2.543 4.115 3.045 4.071 3.825 3.915 L 3.647 2.822 C 3.1 2.922 2.777 2.967 2.498 2.967 C 1.796 2.967 1.561 2.744 1.561 2.063 L 1.561 1.138 L 3.446 1.138 L 3.446 0 L 1.561 0 L 1.561 -4.439 L 0 -4.439 Z" fill="currentColor"/></g><g transform="translate(663.1569 241.6093)"><path d="M 0 0 C -0.056 1.037 -0.435 1.361 -1.182 1.361 C -1.952 1.361 -2.32 1.026 -2.387 0 Z M -3.959 -0.424 C -3.959 1.628 -3.089 2.509 -1.16 2.509 C 0.747 2.509 1.584 1.639 1.584 -0.379 L 1.584 -0.937 L -2.375 -0.937 C -2.275 -1.918 -1.862 -2.286 -0.926 -2.286 C -0.323 -2.286 0.446 -2.141 1.149 -1.896 L 1.361 -3.033 C 0.346 -3.323 -0.48 -3.446 -1.16 -3.446 C -3.078 -3.446 -3.959 -2.498 -3.959 -0.424" fill="currentColor"/></g><g transform="translate(671.6265 243.8394)"><path d="M 0 0 C 0.212 0.246 0.317 0.52 0.317 0.821 C 0.317 1.056 0.24 1.259 0.085 1.429 C -0.07 1.6 -0.28 1.685 -0.543 1.685 C -0.944 1.685 -1.222 1.551 -1.377 1.283 C -1.456 1.145 -1.496 0.995 -1.496 0.832 C -1.496 0.611 -1.435 0.399 -1.313 0.196 C -1.191 -0.007 -0.988 -0.27 -0.705 -0.592 C -0.364 -0.35 -0.129 -0.152 0 0 M 0.077 -4.534 C 0.366 -4.348 0.589 -4.142 0.744 -3.913 L -1.057 -1.708 C -1.566 -2.049 -1.898 -2.31 -2.053 -2.492 C -2.292 -2.764 -2.411 -3.096 -2.411 -3.488 C -2.411 -3.913 -2.256 -4.24 -1.947 -4.468 C -1.638 -4.697 -1.309 -4.811 -0.958 -4.811 C -0.557 -4.811 -0.212 -4.719 0.077 -4.534 M -2.277 -0.058 C -2.392 0.207 -2.449 0.463 -2.449 0.71 C -2.449 1.226 -2.275 1.653 -1.928 1.992 C -1.58 2.332 -1.115 2.502 -0.532 2.502 C 0.021 2.502 0.454 2.344 0.765 2.028 C 1.076 1.712 1.232 1.335 1.232 0.896 C 1.232 0.384 1.071 -0.064 0.75 -0.448 C 0.562 -0.673 0.247 -0.933 -0.193 -1.227 L 1.259 -2.971 C 1.356 -2.68 1.423 -2.464 1.46 -2.32 C 1.497 -2.177 1.536 -1.976 1.575 -1.719 L 2.506 -1.719 C 2.445 -2.23 2.322 -2.721 2.138 -3.191 C 1.954 -3.662 1.862 -3.851 1.862 -3.76 L 3.279 -5.487 L 2.018 -5.487 L 1.27 -4.572 C 0.973 -4.895 0.702 -5.131 0.456 -5.28 C 0.026 -5.541 -0.47 -5.672 -1.031 -5.672 C -1.859 -5.672 -2.461 -5.448 -2.837 -4.999 C -3.214 -4.551 -3.402 -4.045 -3.402 -3.483 C -3.402 -2.876 -3.219 -2.37 -2.853 -1.963 C -2.629 -1.717 -2.211 -1.408 -1.599 -1.038 C -1.937 -0.649 -2.163 -0.323 -2.277 -0.058" fill="currentColor"/></g><g transform="translate(678.4458 239.8918)"><path d="M 0 0 L 0 6.825 L 1.561 6.825 L 1.561 0.145 C 1.561 -0.413 1.729 -0.546 2.074 -0.546 C 2.253 -0.546 2.465 -0.513 2.677 -0.457 L 2.866 -1.539 C 2.253 -1.695 1.918 -1.729 1.573 -1.729 C 0.48 -1.729 0 -1.227 0 0" fill="currentColor"/></g><g transform="translate(687.5319 338.1072)"><path d="M 0 0 C -1.687 0.758 -3.112 0.633 -4.524 -0.026 C -3.047 -1.093 -1.172 -1.012 0 0 M 12.438 2.266 C 11.298 3.17 10 3.502 8.594 2.985 C 9.424 1.625 11.143 1.335 12.438 2.266 M -1.665 4.642 C -3.547 6.213 -6.015 5.64 -7.5 3.936 C -5.563 2.885 -3.028 2.864 -1.665 4.642 M -0.573 5.926 C 0.09 6.945 -0.063 8.114 -0.914 8.787 C -1.036 7.757 -0.932 6.856 -0.573 5.926 M 8.577 6.915 C 11.646 6.543 14.2 8.235 14.777 11.269 C 12.288 10.646 8.841 9.25 8.577 6.915 M 15.547 14.668 C 14.052 15.34 12.551 15.175 11.064 14.517 C 12.288 13.468 14.09 13.683 15.547 14.668 M -1.415 14.463 C -2.582 15.917 -4.476 15.947 -5.86 14.892 C -4.564 13.779 -2.855 13.587 -1.415 14.463 M 4.932 16.46 C 3.955 15.321 3.735 13.688 4.515 12.501 C 5.958 12.883 5.904 14.663 4.932 16.46 M 10.931 18.082 L 10.351 19.412 C 9.137 18.534 8.758 16.657 9.614 15.534 C 10.694 15.675 11.365 17.087 10.931 18.082 M -0.026 15.657 C 1.341 17.057 0.573 18.802 -0.72 19.628 C -1.435 18.312 -1.413 16.451 -0.026 15.657 M 8.58 5.825 C 7.84 5.281 7.182 4.352 6.773 3.501 C 9.365 4.845 12.131 4.496 14.033 2.275 C 13.2 1.119 11.969 0.534 10.542 0.618 C 9.328 0.688 8.321 1.492 7.409 2.544 C 6.82 2.111 5.774 1.401 5.565 0.799 C 4.047 -3.924 5.981 -8.656 9.989 -11.403 C 10.142 -11.508 10.378 -11.886 10.367 -12.067 C 10.354 -12.294 9.755 -12.449 9.506 -12.394 C 6.313 -10.302 4.312 -7.042 3.963 -3.269 C 3.16 -2.149 2.308 -1.215 1.248 -0.516 C -1.231 -2.676 -4.404 -2.165 -6.544 0.233 C -3.868 2.139 -0.805 1.938 2.17 0.308 L -0.682 3.917 C -2.647 1.649 -6.672 1.439 -8.839 3.668 C -7.739 6.26 -4.555 7.287 -1.948 6.215 C -2.27 7.935 -2.011 9.276 -1.299 10.652 C 0.862 9.339 1.688 6.903 0.152 4.759 C 0.96 3.476 1.809 2.376 3.107 1.234 C 2.768 5.608 1.657 10.048 -0.712 13.469 C -2.984 12.356 -5.889 12.75 -7.255 14.813 C -6.33 16.568 -4.01 17.125 -2.118 16.412 C -2.457 18.379 -2.321 19.969 -0.683 21.224 C 0.818 20.03 2.046 18.408 1.788 16.796 C 1.643 15.885 0.961 15.02 -0.047 14.529 C 1.62 12.003 2.8 9.346 3.484 6.125 L 4.921 9.704 L 3.318 12.512 C 2.215 14.443 3.488 16.734 4.824 18.456 C 5.715 17.519 6.353 16.226 6.678 14.927 C 7.098 13.254 5.986 12.523 5.332 10.927 C 6.732 12.171 7.508 13.468 8.954 14.5 C 8.089 15.467 7.871 16.735 8.205 18.091 C 8.48 19.207 9.372 20.253 10.659 20.961 C 11.745 19.528 12.496 17.917 11.911 16.075 C 13.857 16.33 15.799 16.128 17.622 14.895 C 15.233 12.621 12.331 11.816 9.971 13.922 C 5.982 10.959 3.966 6.167 4.35 1.268 C 5.352 3.271 6.275 4.952 7.507 6.582 C 7.473 7.706 7.866 8.732 8.657 9.504 C 10.804 11.225 13.297 12.322 16.041 12.553 C 16.038 8.468 12.825 5.345 8.58 5.825" fill="currentColor"/></g><g transform="translate(684.5014 239.3231)"><path d="M 0 0 C 0.97 0 1.283 0.457 1.283 1.818 C 1.283 3.19 0.97 3.647 0 3.647 C -0.97 3.647 -1.283 3.178 -1.283 1.818 C -1.283 0.468 -0.97 0 0 0 M -2.844 1.818 C -2.844 3.892 -1.963 4.796 0 4.796 C 1.974 4.796 2.855 3.892 2.855 1.818 C 2.855 -0.245 1.974 -1.149 0 -1.149 C -1.963 -1.149 -2.844 -0.245 -2.844 1.818" fill="currentColor"/></g><g transform="translate(688.2149 241.141)"><path d="M 0 0 C 0 2.097 0.803 2.978 2.688 2.978 C 3.212 2.978 3.926 2.911 4.874 2.721 L 4.662 1.561 C 3.769 1.751 3.301 1.795 2.955 1.795 C 1.896 1.795 1.572 1.383 1.572 0.011 C 1.572 -1.372 1.896 -1.784 2.922 -1.784 C 3.245 -1.784 3.68 -1.74 4.662 -1.561 L 4.874 -2.721 C 3.926 -2.911 3.212 -2.978 2.688 -2.978 C 0.803 -2.978 0 -2.097 0 0" fill="currentColor"/></g><g transform="translate(698.6043 271.8232)"><path d="M 0 0 C -1.602 -1.34 -2.943 2.866 -3.237 5.12 L -4.62 15.728 L -6.044 25.828 L -7.057 33.122 L -7.677 38.993 C -7.885 40.965 -8.062 42.878 -7.294 44.699 C -6.734 46.027 -5.376 46.766 -4.042 46.24 C -3.703 46.106 -3.281 45.491 -3.236 45.111 L -1.211 27.948 L 0.563 12.078 C 0.877 9.265 1.441 6.688 1.222 3.819 C 1.116 2.426 1.005 1.139 0 0" fill="currentColor"/></g><g transform="translate(695.8317 239.3008)"><path d="M 0 0 C 0.413 0 0.926 0.234 1.372 0.535 L 1.372 1.673 C 1.015 1.706 0.714 1.717 0.457 1.717 C -0.468 1.717 -0.781 1.506 -0.781 0.903 C -0.781 0.268 -0.457 0 0 0 M 1.561 -0.346 C 0.892 -0.781 0.123 -1.138 -0.58 -1.138 C -1.506 -1.138 -2.32 -0.524 -2.32 0.747 C -2.32 1.974 -1.561 2.487 0.29 2.487 C 0.636 2.487 0.981 2.476 1.372 2.442 L 1.372 2.799 C 1.372 3.446 0.881 3.625 0.201 3.625 C -0.357 3.625 -1.048 3.513 -1.628 3.39 L -1.807 4.528 C -1.205 4.651 -0.234 4.818 0.569 4.818 C 1.784 4.818 2.944 4.416 2.944 2.866 L 2.944 -0.948 L 1.65 -0.948 Z" fill="currentColor"/></g><g transform="translate(707.9412 264.6274)"><path d="M 0 0 C -3.237 -0.892 -9.786 -2.243 -9.879 0.689 C -9.897 1.247 -9.447 1.819 -8.826 2.031 L 1.355 5.492 C 4.455 6.546 7.385 7.736 10.253 9.28 C 13.728 11.151 15.684 14.233 17.913 17.378 C 18.345 17.987 19.227 17.674 19.795 17.364 C 20.94 16.737 21.989 15.499 21.568 14.087 C 20.395 10.149 16.461 6.312 12.837 4.613 C 8.678 2.663 4.425 1.22 0 0" fill="currentColor"/></g><g transform="translate(699.8685 239.8918)"><path d="M 0 0 L 0 6.825 L 1.561 6.825 L 1.561 0.145 C 1.561 -0.413 1.729 -0.546 2.074 -0.546 C 2.253 -0.546 2.465 -0.513 2.677 -0.457 L 2.866 -1.539 C 2.253 -1.695 1.918 -1.729 1.573 -1.729 C 0.48 -1.729 0 -1.227 0 0" fill="currentColor"/></g><g transform="translate(708.6451 239.3231)"><path d="M 0 0 C 0.87 0 1.138 0.413 1.138 1.762 C 1.138 3.112 0.87 3.591 0.101 3.591 C -0.19 3.591 -0.591 3.524 -1.104 3.39 L -1.104 0.156 C -0.658 0.033 -0.312 0 0 0 M -2.677 -0.413 L -2.677 7.394 L -1.104 7.394 L -1.104 4.372 C -0.39 4.639 0.134 4.796 0.669 4.796 C 1.963 4.796 2.699 3.87 2.699 1.773 C 2.699 0.011 2.164 -1.16 0.257 -1.16 C -0.569 -1.16 -1.695 -0.914 -2.677 -0.413" fill="currentColor"/></g><g transform="translate(714.3216 239.3008)"><path d="M 0 0 C 0.413 0 0.926 0.234 1.372 0.535 L 1.372 1.673 C 1.015 1.706 0.714 1.717 0.457 1.717 C -0.468 1.717 -0.781 1.506 -0.781 0.903 C -0.781 0.268 -0.457 0 0 0 M 1.561 -0.346 C 0.892 -0.781 0.123 -1.138 -0.58 -1.138 C -1.506 -1.138 -2.32 -0.524 -2.32 0.747 C -2.32 1.974 -1.561 2.487 0.29 2.487 C 0.636 2.487 0.981 2.476 1.372 2.442 L 1.372 2.799 C 1.372 3.446 0.881 3.625 0.201 3.625 C -0.357 3.625 -1.048 3.513 -1.628 3.39 L -1.807 4.528 C -1.205 4.651 -0.234 4.818 0.569 4.818 C 1.784 4.818 2.944 4.416 2.944 2.866 L 2.944 -0.948 L 1.65 -0.948 Z" fill="currentColor"/></g><g transform="translate(718.403 246.7172)"><path d="M 0 0 L 1.572 0 L 1.572 -4.996 L 3.714 -2.788 L 5.476 -2.788 L 3.245 -4.996 L 5.677 -8.364 L 3.981 -8.364 L 2.297 -5.9 L 1.572 -6.602 L 1.572 -8.364 L 0 -8.364 Z" fill="currentColor"/></g><g transform="translate(722.0554 302.8342)"><path d="M 0 0 C 0.055 -0.238 0.382 -0.706 0.613 -0.74 C 1.774 -0.912 2.294 1.315 2.763 2.995 L 3.569 1.339 C 3.66 1.151 4.046 0.844 4.234 0.783 C 4.453 0.713 4.966 1.001 5.084 1.226 C 5.856 2.705 5.344 3.812 6.151 4.165 C 6.889 2.071 6.541 -0.938 4.91 -1.431 C 4.328 -1.608 3.522 -1.379 2.922 -1.187 C 2.553 -1.794 2.035 -2.47 1.482 -2.725 C 0.752 -3.061 -0.346 -2.994 -0.765 -2.265 C -1.468 -1.042 -1.22 0.453 -0.411 1.793 Z" fill="currentColor"/></g><g transform="translate(727.4203 267.9186)"><path d="M 0 0 C 7.69 1.049 15.637 3.104 22.317 7.074 C 23.98 8.062 25.542 10.116 24.718 11.257 C 24.099 12.115 22.792 10.563 19.491 11.577 C 17.706 12.125 16.92 13.58 17.216 15.414 C 17.714 18.499 19.965 20.983 23.166 21.244 C 24.417 21.345 25.391 20.977 26.318 20.125 C 29.617 17.094 30.947 12.292 29.359 7.994 C 28.545 5.792 26.939 4.002 24.928 2.736 C 17.669 -1.838 9.204 -3.893 0.643 -3.531 C -0.747 -3.472 -1.806 -3.393 -3.004 -2.684 C -3.236 -2.546 -3.562 -2.256 -3.603 -2.036 C -3.779 -1.086 -1.661 -0.227 0 0" fill="currentColor"/></g><g transform="translate(728.1052 241.6093)"><path d="M 0 0 C -0.056 1.037 -0.435 1.361 -1.182 1.361 C -1.952 1.361 -2.32 1.026 -2.387 0 Z M -3.959 -0.424 C -3.959 1.628 -3.089 2.509 -1.16 2.509 C 0.747 2.509 1.584 1.639 1.584 -0.379 L 1.584 -0.937 L -2.375 -0.937 C -2.275 -1.918 -1.862 -2.286 -0.926 -2.286 C -0.323 -2.286 0.446 -2.141 1.149 -1.896 L 1.361 -3.033 C 0.346 -3.323 -0.48 -3.446 -1.16 -3.446 C -3.078 -3.446 -3.959 -2.498 -3.959 -0.424" fill="currentColor"/></g><g transform="translate(729.4735 288.1294)"><path d="M 0 0 C -0.752 -0.745 -1.752 -1.093 -2.787 -0.858 C -3.664 -0.658 -4.491 0.105 -4.671 1.174 C -4.877 2.393 -4.399 3.491 -3.457 4.054 C -2.392 4.69 -1.139 4.582 -0.237 3.744 C 0.891 2.696 1.193 1.182 0 0" fill="currentColor"/></g><g transform="translate(730.5919 243.929)"><path d="M 0 0 L 1.294 0 L 1.439 -0.747 C 2.13 -0.19 2.866 0.134 3.691 0.134 L 3.48 -1.071 C 2.755 -1.071 2.186 -1.294 1.572 -1.796 L 1.572 -5.576 L 0 -5.576 Z" fill="currentColor"/></g><g transform="translate(736.7032 237.9179)"><path d="M 0 0 L 0.178 0.435 L -0.056 0.435 L -2.253 6.011 L -0.625 6.011 L 0.736 1.963 L 2.175 6.011 L 3.792 6.011 L 1.238 -0.245 C 0.736 -1.483 -0.067 -1.74 -1.383 -1.974 L -1.573 -0.926 C -0.903 -0.792 -0.245 -0.625 0 0" fill="currentColor"/></g><g transform="translate(752.5571 328.6299)"><path d="M 0 0 L -0.626 1.112 C -1.117 1.986 -1.513 2.532 -1.814 2.753 C -2.023 2.914 -2.327 2.996 -2.726 2.996 L -3.395 2.996 L -3.395 0 L -4.533 0 L -4.533 7.052 L -2.11 7.052 C -1.281 7.052 -0.682 6.986 -0.313 6.856 C 0.058 6.726 0.354 6.498 0.575 6.174 C 0.793 5.85 0.904 5.505 0.904 5.141 C 0.904 4.625 0.72 4.177 0.352 3.794 C -0.015 3.412 -0.503 3.199 -1.112 3.152 C -0.863 3.048 -0.663 2.924 -0.512 2.779 C -0.228 2.5 0.119 2.035 0.531 1.381 L 1.39 0 Z M 4.013 6.909 C 3.429 7.96 2.611 8.766 1.564 9.331 C 0.516 9.897 -0.558 10.177 -1.658 10.177 C -2.758 10.177 -3.832 9.897 -4.88 9.331 C -5.929 8.766 -6.747 7.96 -7.334 6.909 C -7.922 5.857 -8.214 4.763 -8.214 3.621 C -8.214 2.493 -7.926 1.407 -7.348 0.364 C -6.767 -0.678 -5.959 -1.487 -4.919 -2.063 C -3.879 -2.64 -2.794 -2.928 -1.658 -2.928 C -0.524 -2.928 0.563 -2.64 1.603 -2.063 C 2.641 -1.487 3.45 -0.678 4.026 0.364 C 4.603 1.407 4.891 2.493 4.891 3.621 C 4.891 4.763 4.597 5.857 4.013 6.909" fill="currentColor"/></g><g transform="translate(752.2538 333.6752)"><path d="M 0 0 C 0 -0.324 -0.121 -0.584 -0.36 -0.782 C -0.601 -0.978 -1.051 -1.078 -1.711 -1.078 L -3.092 -1.078 L -3.092 1.051 L -1.797 1.051 C -1.242 1.051 -0.861 1.01 -0.656 0.929 C -0.45 0.848 -0.29 0.725 -0.173 0.56 C -0.058 0.396 0 0.209 0 0" fill="currentColor"/></g></g></svg>