<svg xmlns="http://www.w3.org/2000/svg" viewBox="308.78900000000004 281.7326999999999 137.15529999999995 63.30320000000003" role="img" fill="currentColor"><g transform="matrix(1 0 0 -1 0 595.276)"><g transform="translate(361.963 270.9187)"><path d="M 0 0 C 3.462 1.869 8.193 5.284 6.277 9.052 L 4.111 13.315 C 3.672 14.177 3.159 14.804 3.529 15.894 C 3.746 16.532 4.403 17.24 5.23 17.544 C 6.214 17.907 7.21 17.694 7.82 16.822 C 11.916 10.964 14.06 4.008 7.857 -0.877 C -0.379 -7.363 -12.474 -9.411 -22.897 -9.554 C -28.507 -9.631 -33.792 -9.229 -39.202 -7.825 C -41.717 -7.173 -44.048 -6.395 -46.177 -4.929 C -49.996 -2.297 -51.174 2.598 -48.657 6.624 C -47.122 9.077 -44.893 11.081 -42.27 12.523 C -34.974 16.534 -26.7 18.38 -18.4 18.035 C -17.84 18.012 -17.232 17.497 -17.185 17.129 C -17.115 16.588 -17.677 16.08 -18.278 15.963 L -27.945 14.085 C -31.792 13.338 -35.401 12.031 -38.856 10.241 C -42.654 8.273 -46.393 4.131 -44.045 0.419 C -43.501 -0.441 -42.483 -0.981 -41.547 -1.432 C -36.17 -4.02 -30.043 -4.835 -24.062 -4.697 C -16.002 -4.511 -7.082 -3.823 0 0" fill="currentColor"/></g><g transform="translate(342.5282 255.3091)"><path d="M 0 0 C -0.098 -1.851 -2.039 -3.069 -3.759 -2.56 C -4.902 -2.223 -5.545 -1.252 -5.659 -0.207 C -5.778 0.876 -5.214 1.866 -4.24 2.53 C -3.393 3.107 -2.268 3.008 -1.387 2.419 C -0.687 1.951 0.058 1.091 0 0" fill="currentColor"/></g><g transform="translate(384.1812 264.7773)"><path d="M 0 0 C -1.602 -1.34 -2.943 2.866 -3.237 5.12 L -4.62 15.728 L -6.044 25.828 L -7.057 33.122 L -7.677 38.993 C -7.885 40.965 -8.062 42.878 -7.294 44.699 C -6.734 46.027 -5.376 46.766 -4.042 46.24 C -3.703 46.106 -3.281 45.491 -3.236 45.111 L -1.211 27.948 L 0.563 12.078 C 0.877 9.265 1.441 6.688 1.222 3.819 C 1.116 2.426 1.005 1.139 0 0" fill="currentColor"/></g><g transform="translate(393.5181 257.5815)"><path d="M 0 0 C -3.237 -0.892 -9.786 -2.243 -9.879 0.689 C -9.897 1.247 -9.447 1.819 -8.826 2.031 L 1.355 5.492 C 4.455 6.546 7.385 7.736 10.253 9.28 C 13.728 11.151 15.684 14.233 17.913 17.378 C 18.345 17.987 19.227 17.674 19.795 17.364 C 20.941 16.737 21.989 15.499 21.568 14.087 C 20.395 10.149 16.461 6.312 12.837 4.613 C 8.678 2.663 4.425 1.22 0 0" fill="currentColor"/></g><g transform="translate(407.6323 295.7883)"><path d="M 0 0 C 0.055 -0.238 0.382 -0.706 0.613 -0.74 C 1.774 -0.912 2.294 1.315 2.763 2.995 L 3.569 1.339 C 3.66 1.151 4.046 0.844 4.234 0.783 C 4.453 0.713 4.966 1.001 5.084 1.226 C 5.856 2.705 5.344 3.812 6.151 4.165 C 6.889 2.071 6.541 -0.938 4.91 -1.431 C 4.328 -1.608 3.522 -1.379 2.922 -1.187 C 2.553 -1.794 2.035 -2.47 1.482 -2.725 C 0.752 -3.061 -0.345 -2.994 -0.765 -2.265 C -1.468 -1.042 -1.22 0.453 -0.411 1.793 Z" fill="currentColor"/></g><g transform="translate(412.9973 260.8727)"><path d="M 0 0 C 7.69 1.049 15.637 3.104 22.317 7.074 C 23.98 8.062 25.542 10.116 24.718 11.257 C 24.098 12.115 22.792 10.563 19.491 11.577 C 17.706 12.125 16.92 13.58 17.216 15.414 C 17.714 18.499 19.965 20.983 23.166 21.244 C 24.417 21.345 25.391 20.977 26.318 20.125 C 29.617 17.094 30.947 12.292 29.359 7.994 C 28.545 5.792 26.939 4.002 24.928 2.736 C 17.669 -1.838 9.204 -3.893 0.643 -3.531 C -0.747 -3.472 -1.806 -3.393 -3.004 -2.684 C -3.236 -2.546 -3.562 -2.256 -3.603 -2.036 C -3.779 -1.086 -1.661 -0.227 0 0" fill="currentColor"/></g><g transform="translate(415.0504 281.0834)"><path d="M 0 0 C -0.752 -0.745 -1.752 -1.093 -2.787 -0.858 C -3.664 -0.658 -4.491 0.105 -4.671 1.174 C -4.877 2.393 -4.399 3.491 -3.457 4.054 C -2.392 4.69 -1.139 4.582 -0.237 3.744 C 0.891 2.696 1.193 1.182 0 0" fill="currentColor"/></g></g></svg>