<svg xmlns="http://www.w3.org/2000/svg" viewBox="82.44160000000001 283.30519999999996 48.16000000000001 60.19500000000002" role="img" fill="#1c1c1c"><g transform="matrix(1 0 0 -1 0 595.276)"><g transform="translate(99.1936 274.5508)"><path d="M 0 0 C -2.816 1.265 -5.193 1.057 -7.549 -0.043 C -5.085 -1.824 -1.956 -1.689 0 0 M 20.756 3.782 C 18.854 5.291 16.689 5.844 14.342 4.982 C 15.727 2.711 18.597 2.227 20.756 3.782 M -2.779 7.747 C -5.919 10.368 -10.038 9.412 -12.517 6.568 C -9.284 4.815 -5.054 4.78 -2.779 7.747 M -0.957 9.89 C 0.15 11.59 -0.105 13.541 -1.525 14.665 C -1.729 12.945 -1.556 11.442 -0.957 9.89 M 14.313 11.54 C 19.435 10.92 23.697 13.742 24.66 18.806 C 20.507 17.766 14.755 15.437 14.313 11.54 M 25.946 24.478 C 23.45 25.6 20.946 25.325 18.465 24.227 C 20.507 22.476 23.514 22.834 25.946 24.478 M -2.361 24.137 C -4.309 26.564 -7.47 26.613 -9.779 24.853 C -7.617 22.995 -4.765 22.674 -2.361 24.137 M 8.23 27.469 C 6.6 25.568 6.233 22.842 7.534 20.863 C 9.943 21.499 9.854 24.47 8.23 27.469 M 18.242 30.176 L 17.273 32.396 C 15.249 30.931 14.616 27.797 16.045 25.924 C 17.847 26.16 18.967 28.515 18.242 30.176 M -0.043 26.129 C 2.239 28.466 0.956 31.377 -1.202 32.757 C -2.395 30.559 -2.359 27.454 -0.043 26.129 M 14.319 9.722 C 13.084 8.813 11.986 7.263 11.303 5.843 C 15.629 8.086 20.244 7.503 23.42 3.797 C 22.029 1.868 19.975 0.892 17.592 1.031 C 15.568 1.149 13.887 2.49 12.365 4.245 C 11.382 3.524 9.636 2.338 9.286 1.334 C 6.754 -6.548 9.982 -14.446 16.669 -19.031 C 16.925 -19.206 17.319 -19.836 17.302 -20.139 C 17.28 -20.517 16.279 -20.775 15.865 -20.684 C 10.535 -17.192 7.196 -11.752 6.613 -5.456 C 5.274 -3.587 3.851 -2.028 2.082 -0.861 C -2.054 -4.467 -7.349 -3.614 -10.92 0.389 C -6.455 3.569 -1.343 3.234 3.621 0.514 L -1.138 6.537 C -4.417 2.751 -11.135 2.402 -14.752 6.121 C -12.916 10.447 -7.602 12.161 -3.25 10.372 C -3.789 13.242 -3.356 15.481 -2.168 17.777 C 1.438 15.586 2.817 11.521 0.253 7.942 C 1.603 5.801 3.019 3.966 5.185 2.059 C 4.619 9.359 2.766 16.768 -1.189 22.477 C -4.98 20.62 -9.829 21.278 -12.108 24.72 C -10.563 27.649 -6.692 28.579 -3.534 27.39 C -4.101 30.671 -3.873 33.326 -1.139 35.42 C 1.366 33.427 3.414 30.72 2.985 28.029 C 2.742 26.509 1.603 25.067 -0.078 24.247 C 2.703 20.032 4.672 15.597 5.815 10.221 L 8.213 16.195 L 5.537 20.88 C 3.697 24.103 5.82 27.927 8.05 30.801 C 9.537 29.237 10.602 27.079 11.145 24.911 C 11.845 22.119 9.989 20.9 8.899 18.236 C 11.235 20.312 12.529 22.475 14.942 24.198 C 13.5 25.812 13.135 27.928 13.693 30.191 C 14.152 32.054 15.64 33.799 17.789 34.981 C 19.601 32.59 20.854 29.901 19.878 26.828 C 23.126 27.253 26.367 26.916 29.408 24.857 C 25.422 21.063 20.578 19.719 16.641 23.234 C 9.984 18.289 6.618 10.292 7.26 2.116 C 8.933 5.459 10.472 8.264 12.529 10.985 C 12.471 12.86 13.128 14.572 14.447 15.862 C 18.031 18.733 22.191 20.564 26.771 20.95 C 26.765 14.131 21.404 8.921 14.319 9.722" fill="#1c1c1c"/></g></g></svg>